# xmcd
#
# Track frame offsets:
#	375
#	17626
#	31150
#	50988
#	76991
#	94047
#	109682
#	128716
#	144785
#	165928
#
# Disc length: 2440 seconds
#
# Revision: 2
# Processed by: cddbd v1.5.2PL0 Copyright (c) Steve Scherf et al.
# Submitted via: audiograbber 1.83.01
#
DISCID=7309830a
DTITLE=Stacie Collins - The Lucky Spot
DYEAR=2007
DGENRE=CountryRock
TTITLE0=It Ain't Love
TTITLE1=Long Gone
TTITLE2=Lucky Spot
TTITLE3=Sorryville
TTITLE4=Show Your Mama
TTITLE5=Baby Sister
TTITLE6=Never Ever
TTITLE7=Ramblin
TTITLE8=Do You Miss Her
TTITLE9=Top Of That Mountain
EXTD=
EXTT0=
EXTT1=
EXTT2=
EXTT3=
EXTT4=
EXTT5=
EXTT6=
EXTT7=
EXTT8=
EXTT9=
PLAYORDER=
